<?xml version="1.0" encoding="UTF-8"?> <!-- Generator: Adobe Illustrator 25.4.1, SVG Export Plug-In . SVG Version: 6.00 Build 0) --> <svg xmlns="http://www.w3.org/2000/svg" xmlns:xlink="http://www.w3.org/1999/xlink" id="Artwork" x="0px" y="0px" width="239.421px" height="87.846px" viewBox="0 0 239.421 87.846" style="enable-background:new 0 0 239.421 87.846;" xml:space="preserve"> <g> <g> <path d="M71.127,75.42h6.984v1.266h-5.578v3.617h5.289v1.25h-5.289v3.875h5.578v1.266h-6.984V75.42z"></path> <path d="M79.626,82.631v-0.008c0-2.562,1.391-4.211,3.43-4.211c1.148,0,2.094,0.578,2.602,1.516h0.031V75.42h1.359v11.273h-1.359 v-1.375h-0.031c-0.508,0.945-1.414,1.531-2.578,1.531C81.001,86.85,79.626,85.193,79.626,82.631z M85.696,82.631v-0.008 c0-1.812-0.984-3.008-2.352-3.008c-1.438,0-2.328,1.156-2.328,3.008v0.008c0,1.867,0.891,3.016,2.328,3.016 C84.719,85.646,85.696,84.451,85.696,82.631z"></path> <path d="M89.116,83.842v-5.273h1.359V83.6c0,1.32,0.617,2.047,1.867,2.047c1.281,0,2.117-0.914,2.117-2.297v-4.781h1.359v8.125 H94.46v-1.156h-0.031c-0.438,0.758-1.266,1.312-2.5,1.312C90.148,86.85,89.116,85.693,89.116,83.842z"></path> <path d="M97.459,82.623v-0.008c0-2.562,1.492-4.203,3.75-4.203c2.023,0,3.219,1.344,3.391,2.734l0.008,0.062h-1.328l-0.016-0.062 c-0.203-0.812-0.859-1.531-2.055-1.531c-1.414,0-2.359,1.172-2.359,3.016v0.008c0,1.891,0.969,3.008,2.375,3.008 c1.109,0,1.82-0.625,2.047-1.531l0.016-0.062h1.336l-0.008,0.055c-0.219,1.547-1.555,2.742-3.391,2.742 C98.92,86.85,97.459,85.209,97.459,82.623z"></path> <path d="M105.817,84.396v-0.016c0-1.383,1.078-2.25,2.945-2.359l2.328-0.133v-0.68c0-0.992-0.648-1.594-1.781-1.594 c-1.047,0-1.703,0.5-1.859,1.227l-0.016,0.07h-1.312l0.008-0.086c0.117-1.336,1.281-2.414,3.195-2.414 c1.922,0,3.125,1.039,3.125,2.664v5.617h-1.359v-1.32h-0.031c-0.477,0.891-1.453,1.477-2.539,1.477 C106.903,86.85,105.817,85.873,105.817,84.396z M108.824,85.67c1.281,0,2.266-0.883,2.266-2.062v-0.664l-2.172,0.133 c-1.086,0.062-1.711,0.547-1.711,1.305v0.016C107.207,85.178,107.848,85.67,108.824,85.67z"></path> <path d="M114.862,84.623v-4.93h-1.188v-1.125h1.188v-2.195h1.406v2.195h1.547v1.125h-1.547v4.922c0,0.867,0.383,1.109,1.109,1.109 c0.164,0,0.32-0.023,0.438-0.031v1.102c-0.172,0.023-0.461,0.055-0.727,0.055C115.597,86.85,114.862,86.178,114.862,84.623z"></path> <path d="M119.454,76.342c0-0.477,0.383-0.852,0.852-0.852c0.477,0,0.852,0.375,0.852,0.852c0,0.469-0.375,0.852-0.852,0.852 C119.837,77.193,119.454,76.81,119.454,76.342z M119.626,78.568h1.359v8.125h-1.359V78.568z"></path> <path d="M122.551,82.631v-0.016c0-2.586,1.516-4.203,3.758-4.203s3.766,1.609,3.766,4.203v0.016c0,2.594-1.516,4.219-3.758,4.219 C124.059,86.85,122.551,85.217,122.551,82.631z M128.684,82.631v-0.016c0-1.906-0.938-3-2.375-3c-1.414,0-2.367,1.102-2.367,3 v0.016c0,1.914,0.945,3.016,2.383,3.016C127.754,85.646,128.684,84.537,128.684,82.631z"></path> <path d="M131.553,78.568h1.359v1.156h0.031c0.438-0.758,1.266-1.312,2.5-1.312c1.781,0,2.812,1.156,2.812,3.008v5.273h-1.359 v-5.031c0-1.32-0.617-2.047-1.867-2.047c-1.281,0-2.117,0.914-2.117,2.297v4.781h-1.359V78.568z"></path> </g> <g id="XMLID_1_"> <g id="XMLID_3_"> <path id="XMLID_4_" d="M51.431,46.33c-0.078,0.223-1.328,4.531-4.375,8.982c-2.631,3.85-5.363,7.686-9.67,7.764 c-4.228,0.08-5.59-2.51-10.422-2.51c-4.838,0-6.35,2.432-10.348,2.59c-4.154,0.156-7.322-4.162-9.973-7.996 c-5.428-7.844-9.568-22.162-4-31.82c2.758-4.803,7.701-7.842,13.064-7.92c4.084-0.076,7.93,2.742,10.426,2.742 c2.492,0,7.17-3.393,12.088-2.894c2.059,0.088,7.84,0.828,11.553,6.264c-0.295,0.188-6.898,4.029-6.826,12.018 C43.035,43.111,51.334,46.291,51.431,46.33z M35,10.084C37.21,7.41,38.693,3.697,38.287,0c-3.178,0.117-7.027,2.115-9.303,4.785 c-2.045,2.363-3.838,6.144-3.352,9.766C29.173,14.826,32.798,12.75,35,10.084z"></path> </g> <g> <path d="M79.824,28.245h-6.849l-1.644,4.856h-2.9l6.486-17.967h3.014l6.486,17.967h-2.95L79.824,28.245z M73.686,26.004h5.429 l-2.677-7.882h-0.075L73.686,26.004z"></path> <path d="M97.162,33.101h-2.578v-2.216h-0.062c-0.723,1.569-2.055,2.453-4.06,2.453c-2.852,0-4.594-1.855-4.594-4.856v-8.479 h2.689v7.957c0,1.992,0.945,3.062,2.801,3.062c1.942,0,3.113-1.345,3.113-3.387v-7.632h2.689V33.101z"></path> <path d="M103.555,16.902v3.1h2.49v2.129h-2.49v7.222c0,1.133,0.498,1.644,1.594,1.644c0.274,0,0.71-0.025,0.885-0.062v2.129 c-0.299,0.075-0.896,0.125-1.494,0.125c-2.652,0-3.686-1.009-3.686-3.536v-7.521h-1.905v-2.129h1.905v-3.1H103.555z"></path> <path d="M108.604,15.134h2.665v7.06h0.062c0.723-1.532,2.154-2.416,4.146-2.416c2.877,0,4.595,1.917,4.595,4.881v8.442h-2.702 v-7.919c0-1.93-0.971-3.088-2.863-3.088c-1.992,0-3.213,1.37-3.213,3.437v7.57h-2.689V15.134z"></path> <path d="M122.331,26.552c0-4.208,2.478-6.786,6.213-6.786c3.736,0,6.214,2.578,6.214,6.786c0,4.221-2.466,6.798-6.214,6.798 C124.797,33.35,122.331,30.772,122.331,26.552z M132.018,26.552c0-2.901-1.37-4.569-3.474-4.569s-3.474,1.668-3.474,4.569 c0,2.914,1.369,4.582,3.474,4.582C130.661,31.134,132.018,29.465,132.018,26.552z"></path> <path d="M137.092,20.002h2.565v2.229h0.062c0.437-1.532,1.606-2.44,3.15-2.44c0.387,0,0.723,0.062,0.922,0.1v2.502 c-0.212-0.087-0.686-0.149-1.208-0.149c-1.73,0-2.802,1.158-2.802,3.013v7.844h-2.689V20.002z"></path> <path d="M145.591,16.541c0-0.859,0.697-1.544,1.557-1.544c0.858,0,1.556,0.685,1.556,1.544c0,0.847-0.697,1.544-1.556,1.544 C146.288,18.085,145.591,17.388,145.591,16.541z M145.801,20.002h2.689v13.099h-2.689V20.002z"></path> <path d="M156.317,19.766c3.05,0,5.029,1.693,5.117,4.109h-2.527c-0.15-1.271-1.084-2.067-2.59-2.067 c-1.457,0-2.429,0.71-2.429,1.756c0,0.822,0.598,1.382,2.018,1.706l2.129,0.485c2.677,0.623,3.698,1.668,3.698,3.561 c0,2.391-2.229,4.034-5.316,4.034c-3.275,0-5.242-1.606-5.491-4.096h2.664c0.249,1.369,1.183,2.042,2.827,2.042 c1.618,0,2.614-0.673,2.614-1.743c0-0.847-0.485-1.345-1.917-1.669l-2.13-0.498c-2.49-0.572-3.723-1.768-3.723-3.673 C151.261,21.372,153.303,19.766,156.317,19.766z"></path> <path d="M175.299,29.254c-0.374,2.391-2.64,4.096-5.641,4.096c-3.848,0-6.176-2.602-6.176-6.736c0-4.109,2.366-6.849,6.063-6.849 c3.636,0,5.902,2.565,5.902,6.537v0.921h-9.252v0.162c0,2.279,1.37,3.785,3.524,3.785c1.531,0,2.664-0.771,3.025-1.917H175.299z M166.209,25.344h6.55c-0.062-2.004-1.332-3.411-3.213-3.411C167.666,21.933,166.346,23.364,166.209,25.344z"></path> <path d="M177.197,26.552c0-4.134,2.191-6.761,5.479-6.761c1.88,0,3.374,0.946,4.108,2.391h0.051v-7.048h2.701v17.967h-2.614 v-2.229h-0.05c-0.772,1.494-2.267,2.453-4.172,2.453C179.388,33.325,177.197,30.685,177.197,26.552z M179.949,26.552 c0,2.764,1.332,4.495,3.461,4.495c2.067,0,3.449-1.756,3.449-4.495c0-2.714-1.382-4.495-3.449-4.495 C181.281,22.057,179.949,23.8,179.949,26.552z"></path> <path d="M74.221,63.101V47.537h-5.503v-2.402h13.783v2.402H77.01v15.564H74.221z"></path> <path d="M82.53,50.003h2.565v2.229h0.062c0.436-1.531,1.605-2.44,3.149-2.44c0.386,0,0.723,0.062,0.922,0.1v2.503 c-0.212-0.087-0.685-0.149-1.208-0.149c-1.73,0-2.802,1.158-2.802,3.014v7.844H82.53V50.003z"></path> <path d="M90.357,59.379c0-2.291,1.755-3.698,4.868-3.873l3.586-0.211v-1.009c0-1.457-0.983-2.328-2.627-2.328 c-1.557,0-2.527,0.747-2.765,1.917h-2.54c0.149-2.365,2.167-4.108,5.404-4.108c3.175,0,5.204,1.681,5.204,4.308v9.027H98.91 v-2.154h-0.062c-0.76,1.457-2.415,2.379-4.134,2.379C92.15,63.326,90.357,61.732,90.357,59.379z M98.811,58.195v-1.033 l-3.225,0.199c-1.606,0.112-2.516,0.822-2.516,1.942c0,1.146,0.946,1.893,2.391,1.893C97.342,61.196,98.811,59.901,98.811,58.195 z"></path> <path d="M104.221,46.541c0-0.858,0.697-1.543,1.557-1.543c0.858,0,1.556,0.685,1.556,1.543c0,0.848-0.697,1.545-1.556,1.545 C104.918,48.086,104.221,47.389,104.221,46.541z M104.432,50.003h2.689v13.099h-2.689V50.003z"></path> <path d="M110.128,50.003h2.565v2.191h0.062c0.709-1.494,2.104-2.415,4.121-2.415c2.889,0,4.545,1.842,4.545,4.843v8.479h-2.702 v-7.956c0-1.968-0.922-3.051-2.789-3.051c-1.893,0-3.113,1.345-3.113,3.374v7.633h-2.689V50.003z"></path> <path d="M124.142,46.541c0-0.858,0.697-1.543,1.556-1.543c0.859,0,1.557,0.685,1.557,1.543c0,0.848-0.697,1.545-1.557,1.545 C124.839,48.086,124.142,47.389,124.142,46.541z M124.354,50.003h2.689v13.099h-2.689V50.003z"></path> <path d="M130.049,50.003h2.566v2.191h0.062c0.71-1.494,2.104-2.415,4.122-2.415c2.889,0,4.544,1.842,4.544,4.843v8.479h-2.701 v-7.956c0-1.968-0.922-3.051-2.789-3.051c-1.893,0-3.113,1.345-3.113,3.374v7.633h-2.69V50.003z"></path> <path d="M144.077,64.123h2.701c0.387,1.096,1.582,1.817,3.113,1.817c2.104,0,3.35-1.195,3.35-2.988v-2.154h-0.051 c-0.734,1.42-2.278,2.354-4.146,2.354c-3.287,0-5.441-2.565-5.441-6.649c0-4.121,2.142-6.711,5.503-6.711 c1.855,0,3.375,0.934,4.172,2.453h0.05v-2.241h2.614v12.862c0,3.125-2.415,5.167-6.15,5.167 C146.704,68.032,144.413,66.389,144.077,64.123z M153.253,56.515c0-2.689-1.382-4.457-3.486-4.457 c-2.066,0-3.411,1.73-3.411,4.457c0,2.739,1.345,4.408,3.411,4.408C151.871,60.923,153.253,59.217,153.253,56.515z"></path> <path d="M164.076,54.111c0-5.689,3.212-9.275,8.229-9.275c4.072,0,7.147,2.502,7.621,6.25h-2.765 c-0.498-2.303-2.415-3.81-4.856-3.81c-3.262,0-5.379,2.677-5.379,6.835c0,4.196,2.092,6.849,5.392,6.849 c2.503,0,4.283-1.282,4.844-3.449h2.776c-0.685,3.711-3.498,5.89-7.633,5.89C167.263,63.4,164.076,59.84,164.076,54.111z"></path> <path d="M193.743,59.254c-0.374,2.391-2.64,4.097-5.641,4.097c-3.848,0-6.176-2.603-6.176-6.736c0-4.108,2.365-6.848,6.063-6.848 c3.636,0,5.902,2.564,5.902,6.536v0.922h-9.251v0.162c0,2.278,1.369,3.785,3.523,3.785c1.531,0,2.664-0.772,3.025-1.918H193.743z M184.653,55.345h6.55c-0.062-2.005-1.333-3.412-3.213-3.412S184.79,53.365,184.653,55.345z"></path> <path d="M196.354,50.003h2.565v2.191h0.062c0.71-1.494,2.104-2.415,4.122-2.415c2.889,0,4.544,1.842,4.544,4.843v8.479h-2.701 v-7.956c0-1.968-0.922-3.051-2.789-3.051c-1.893,0-3.113,1.345-3.113,3.374v7.633h-2.689V50.003z"></path> <path d="M214.106,46.902v3.101h2.49v2.129h-2.49v7.222c0,1.133,0.498,1.644,1.594,1.644c0.274,0,0.71-0.024,0.885-0.062v2.129 c-0.299,0.074-0.896,0.124-1.494,0.124c-2.652,0-3.686-1.009-3.686-3.536v-7.521H209.5v-2.129h1.905v-3.101H214.106z"></path> <path d="M219.182,50.003h2.565v2.229h0.062c0.437-1.531,1.606-2.44,3.15-2.44c0.387,0,0.723,0.062,0.922,0.1v2.503 c-0.212-0.087-0.686-0.149-1.208-0.149c-1.73,0-2.802,1.158-2.802,3.014v7.844h-2.689V50.003z"></path> <path d="M238.271,59.254c-0.374,2.391-2.64,4.097-5.641,4.097c-3.848,0-6.176-2.603-6.176-6.736c0-4.108,2.366-6.848,6.063-6.848 c3.636,0,5.902,2.564,5.902,6.536v0.922h-9.252v0.162c0,2.278,1.37,3.785,3.524,3.785c1.531,0,2.664-0.772,3.025-1.918H238.271z M229.181,55.345h6.55c-0.062-2.005-1.332-3.412-3.213-3.412C230.638,51.933,229.319,53.365,229.181,55.345z"></path> </g> </g> </g> </svg> 